<svg width="96" height="96" viewBox="0 0 96 96" fill="none" xmlns="http://www.w3.org/2000/svg">
<path d="M48 0C21.4904 0 0 21.4903 0 48C0 60.7684 4.98598 72.3718 13.1166 80.971V80.3373C13.1166 78.6995 13.7671 77.1289 14.9252 75.9709L32.0115 58.8846C33.1695 57.7266 34.7401 57.076 36.3778 57.076H60.5415C62.1793 57.076 63.7499 57.7266 64.9079 58.8846L81.9941 75.9709C83.0684 77.0452 83.705 78.4747 83.7916 79.9833C91.3836 71.4931 96 60.2859 96 48C96 21.4903 74.5096 0 48 0ZM70.1284 41.2959C70.1284 42.3 69.7296 43.2629 69.0196 43.9729L58.544 54.4485C57.834 55.1585 56.871 55.5573 55.867 55.5573H41.0523C40.0482 55.5573 39.0852 55.1584 38.3752 54.4485L27.8997 43.9729C27.1897 43.2629 26.7908 42.3 26.7908 41.2959V26.4812C26.7908 25.4771 27.1897 24.5142 27.8997 23.8042L38.3753 13.3286C39.0853 12.6186 40.0482 12.2198 41.0523 12.2198H55.8671C56.8712 12.2198 57.8341 12.6187 58.5441 13.3286L69.0197 23.8042C69.7297 24.5142 70.1285 25.4771 70.1285 26.4812L70.1284 41.2959Z" fill="#FFCF6A"/>
<path d="M58.544 13.3285C57.834 12.6185 56.871 12.2197 55.867 12.2197H41.0523C40.0482 12.2197 39.0852 12.6186 38.3752 13.3285L27.8997 23.8041C27.1897 24.5141 26.7908 25.4771 26.7908 26.4811V41.2958C26.7908 42.2999 27.1897 43.2629 27.8997 43.9729L38.3753 54.4484C39.0853 55.1584 40.0483 55.5573 41.0523 55.5573H55.8671C56.8712 55.5573 57.8341 55.1584 58.5441 54.4484L69.0197 43.9729C69.7297 43.2629 70.1285 42.2999 70.1285 41.2958V26.4811C70.1285 25.4771 69.7296 24.5141 69.0197 23.8041L58.544 13.3285ZM63.1689 44.4504C63.1689 46.7409 61.3121 48.5977 59.0216 48.5977H37.8977C35.6073 48.5977 33.7504 46.7409 33.7504 44.4504V23.3265C33.7504 21.0361 35.6072 19.1793 37.8977 19.1793H59.0216C61.3121 19.1793 63.1689 21.0361 63.1689 23.3265V44.4504Z" fill="black"/>
<path d="M59.0216 19.1792H37.8977C35.6073 19.1792 33.7504 21.036 33.7504 23.3265V44.4504C33.7504 46.7408 35.6072 48.5976 37.8977 48.5976H59.0216C61.3121 48.5976 63.1689 46.7408 63.1689 44.4504V23.3265C63.1689 21.036 61.3121 19.1792 59.0216 19.1792Z" fill="#FFCF6A"/>
<path d="M64.9078 58.8846C63.7498 57.7266 62.1792 57.076 60.5415 57.076H36.3778C34.74 57.076 33.1694 57.7266 32.0114 58.8846L14.9251 75.971C13.7671 77.129 13.1165 78.6996 13.1165 80.3373V80.971C15.959 83.9773 19.1857 86.6165 22.7184 88.8096V73.9356C22.7184 69.9273 25.9678 66.6779 29.9761 66.6779H66.9431C70.9514 66.6779 74.2008 69.9273 74.2008 73.9356V88.224C77.7513 85.9065 80.9761 83.1318 83.7916 79.9833C83.705 78.4746 83.0684 77.0452 81.9941 75.9709L64.9078 58.8846Z" fill="black"/>
<path d="M66.9431 66.678H29.9762C25.9679 66.678 22.7184 69.9274 22.7184 73.9358V88.8097C30.0603 93.3676 38.7226 96 48 96C57.6676 96 66.6672 93.1413 74.2009 88.2241V73.9357C74.2009 69.9274 70.9515 66.678 66.9431 66.678Z" fill="#FFCF6A"/>
</svg>
