<svg width="228" height="64" viewBox="0 0 228 64" fill="none" xmlns="http://www.w3.org/2000/svg">
<path d="M33.1015 18.855C32.3778 18.1226 31.3832 17.665 30.2976 17.665H14.8324C13.8377 17.665 12.8431 18.1226 12.0285 18.855L1.08498 29.9296C0.361275 30.662 0 31.6692 0 32.7672V48.419C0 49.4256 0.361275 50.4322 1.08498 51.2566L12.0285 62.2397C12.8425 63.0635 13.8372 63.4297 14.8324 63.4297H30.2976C31.3832 63.4297 32.3778 63.0635 33.1015 62.2397L44.045 51.2566C44.7682 50.4328 45.2203 49.4256 45.2203 48.419V32.7672C45.2203 31.6692 44.7682 30.662 44.045 29.9296L33.1015 18.855ZM32.6488 47.8694C32.6488 49.425 31.3826 50.707 29.7546 50.707H15.3749C13.8372 50.707 12.571 49.4256 12.571 47.8694V33.3162C12.571 31.6686 13.8372 30.3872 15.3749 30.3872H29.7551C31.3832 30.3872 32.6494 31.6686 32.6494 33.3162V47.8694H32.6488Z" fill="black"/>
<path d="M166.05 18.7636C165.326 18.1226 164.421 17.665 163.337 17.665H147.871C146.695 17.665 145.791 18.1226 145.067 18.7636L134.124 29.8382C133.4 30.662 132.948 31.5772 132.948 32.6758V48.419C132.948 49.4256 133.4 50.4322 134.034 51.1646L144.977 62.2391C145.791 62.9715 146.786 63.4291 147.781 63.4291H163.337C164.332 63.4291 165.326 62.9715 166.141 62.2391L177.084 51.1646C177.717 50.4322 178.169 49.4256 178.169 48.327V32.6758C178.169 31.5778 177.717 30.6626 176.994 29.8382L166.05 18.7636ZM165.597 47.8694C165.597 49.425 164.331 50.707 162.793 50.707L148.413 50.6156C146.785 50.707 145.519 49.4256 145.609 47.778L145.519 33.2248C145.519 31.6692 146.785 30.3872 148.323 30.3872H162.793C164.331 30.3872 165.597 31.6686 165.597 33.2248V47.8694Z" fill="black"/>
<path d="M82.8434 18.8549C82.1203 18.0311 81.1251 17.6649 80.0395 17.6649H73.0758C72.0811 17.6649 71.0859 18.0311 70.2718 18.8549L62.3134 26.9765V1.7389C62.3134 0.640876 61.6801 -0.00012207 60.5951 -0.00012207H51.4608C50.3758 -0.00012207 49.7425 0.640876 49.7425 1.7389V32.6756V43.7507V48.3274C49.7425 49.4254 50.1043 50.4326 50.9178 51.165L61.771 62.2395C62.585 62.9719 63.5796 63.4295 64.5749 63.4295H80.0401C81.1256 63.4295 82.1203 62.9719 82.844 62.2395L93.7875 51.165C94.5112 50.4326 94.9628 49.426 94.9628 48.3274V32.6756C94.9628 31.669 94.5106 30.6624 93.7875 29.93L82.8434 18.8549ZM82.3912 47.8692C82.3912 49.4248 81.1251 50.7068 79.4976 50.7068H65.1174C63.5796 50.7068 62.3134 49.4254 62.3134 47.8692V43.7502V33.2241C62.3134 31.6684 63.5796 30.3864 65.1174 30.3864H79.4976C81.1256 30.3864 82.3912 31.6678 82.3912 33.2241V47.8692Z" fill="black"/>
<path d="M226.826 29.9296L215.882 18.855C215.159 18.0312 214.164 17.665 213.078 17.665H203.401C202.316 17.665 201.321 18.0312 200.597 18.855L193.455 28.4654H192.458V19.4041C192.458 18.3055 191.824 17.665 190.739 17.665H184.499C183.413 17.665 182.78 18.306 182.78 19.4041V61.6901C182.78 62.7881 183.413 63.4291 184.499 63.4291H193.633C194.718 63.4291 195.351 62.7881 195.351 61.6901V34.689C195.351 32.0348 195.894 30.3872 198.788 30.3872H212.625C214.163 30.3872 215.429 31.6686 215.429 33.2248V61.6907C215.429 62.7887 216.062 63.4297 217.147 63.4297H226.282C227.367 63.4297 228 62.7887 228 61.6907V32.6758C228.002 31.6692 227.549 30.662 226.826 29.9296Z" fill="black"/>
<path d="M128.879 17.665H120.106C119.02 17.665 118.025 18.0312 117.302 18.855L110.16 28.4654H109.163V19.4041C109.163 18.3055 108.529 17.665 107.444 17.665H101.204C100.118 17.665 99.4852 18.306 99.4852 19.4041V61.6901C99.4852 62.7881 100.119 63.4291 101.204 63.4291H110.338C111.423 63.4291 112.056 62.7881 112.056 61.6901V34.689C112.056 32.0348 112.599 30.3872 115.493 30.3872H127.431C128.064 30.3872 128.517 30.1124 128.697 29.3806L131.139 20.5021C131.863 18.0312 130.054 17.665 128.879 17.665Z" fill="black"/>
</svg>
