<svg width="634" height="459" viewBox="0 0 634 459" fill="none" xmlns="http://www.w3.org/2000/svg">
<path d="M66.9082 159.098L71.4627 133.095L0.193909 120.64L5.42049 90.8004L85.7327 15.2126L130.329 23.0062L115.657 106.77L135.075 110.163L129.288 143.2L109.871 139.806L105.316 165.809L66.9082 159.098ZM77.2491 100.058L84.641 57.8563L45.6691 94.5392L77.2491 100.058Z" fill="black"/>
<rect x="408.872" y="149.809" width="225.128" height="237.543" rx="12" fill="#FFCF6A"/>
<path d="M124.605 92.8114C117.643 56.4608 134.14 27.136 169.276 20.4219C204.412 13.7077 230.581 34.8793 237.543 71.2298C244.505 107.58 228.008 136.905 192.872 143.619C157.735 150.334 131.567 129.161 124.605 92.8114ZM203.482 77.7379C199.813 58.5778 190.336 48.8804 175.278 51.7578C160.22 54.6351 154.996 67.1419 158.665 86.302C162.335 105.462 171.811 115.159 186.87 112.282C201.929 109.405 207.152 96.8984 203.482 77.7379Z" fill="black"/>
<path d="M320.75 158.051L314.114 131.052L240.117 149.201L232.502 118.219L277.88 11.3559L324.183 0L345.561 86.9705L365.722 82.026L374.153 116.328L353.992 121.272L360.629 148.271L320.75 158.051ZM305.682 96.7509L294.912 52.9338L272.893 104.793L305.682 96.7509Z" fill="black"/>
<path d="M366.915 390.991H28.7294C12.8628 390.991 0 378.143 0 362.294V131.91C0 130.011 1.54102 128.471 3.44256 128.471H392.202C394.103 128.471 395.645 130.011 395.645 131.91V362.294C395.644 378.143 382.782 390.991 366.915 390.991Z" fill="#FFCF6A"/>
<path d="M66.0109 391.31V229.146" stroke="black" stroke-width="1.3343" stroke-miterlimit="10"/>
<path d="M136.316 391.31V229.146" stroke="black" stroke-width="1.3343" stroke-miterlimit="10"/>
<path d="M206.978 391.31V229.146" stroke="black" stroke-width="1.3343" stroke-miterlimit="10"/>
<path d="M277.641 391.31V229.146" stroke="black" stroke-width="1.3343" stroke-miterlimit="10"/>
<path d="M348.303 391.31V229.146" stroke="black" stroke-width="1.3343" stroke-miterlimit="10"/>
<path d="M141.802 324.087H95.7913C92.673 324.087 89.6824 325.324 87.4774 327.527L54.9427 360.025C52.7376 362.228 51.4988 365.215 51.4988 368.33V414.289C51.4988 417.404 52.7376 420.391 54.9427 422.594L87.4774 455.092C89.6824 457.295 92.673 458.532 95.7913 458.532H141.802C144.921 458.532 147.911 457.295 150.116 455.092L182.651 422.594C184.856 420.391 186.095 417.404 186.095 414.289V368.33C186.095 365.215 184.856 362.228 182.651 360.025L150.116 327.527C147.911 325.324 144.921 324.087 141.802 324.087Z" fill="black"/>
<path d="M129.264 360.725H108.33C106.911 360.725 105.55 361.288 104.547 362.29L89.7444 377.075C88.741 378.078 88.1777 379.437 88.1777 380.854V401.765C88.1777 403.182 88.7415 404.541 89.7444 405.543L104.547 420.329C105.55 421.332 106.911 421.894 108.33 421.894H129.264C130.683 421.894 132.043 421.331 133.047 420.329L147.85 405.543C148.853 404.541 149.416 403.182 149.416 401.765V380.854C149.416 379.437 148.852 378.078 147.85 377.075L133.047 362.29C132.043 361.288 130.683 360.725 129.264 360.725Z" fill="#FFCF6A"/>
<path d="M122.754 415.394L142.908 395.262C145.093 393.079 145.093 389.54 142.908 387.357L122.754 367.226C120.568 365.043 117.025 365.043 114.84 367.226L94.686 387.357C92.5008 389.54 92.5008 393.079 94.686 395.262L114.84 415.394C117.026 417.576 120.568 417.576 122.754 415.394Z" fill="black"/>
<path d="M292.027 324.087H246.016C242.898 324.087 239.907 325.324 237.702 327.527L205.167 360.025C202.962 362.228 201.724 365.215 201.724 368.33V414.289C201.724 417.404 202.962 420.391 205.167 422.594L237.702 455.092C239.907 457.295 242.898 458.532 246.016 458.532H292.027C295.145 458.532 298.136 457.295 300.341 455.092L332.876 422.594C335.081 420.391 336.32 417.404 336.32 414.289V368.33C336.32 365.215 335.081 362.228 332.876 360.025L300.341 327.527C298.137 325.324 295.145 324.087 292.027 324.087Z" fill="black"/>
<path d="M279.489 360.725H258.555C257.136 360.725 255.775 361.288 254.772 362.29L239.969 377.075C238.966 378.078 238.402 379.437 238.402 380.854V401.765C238.402 403.182 238.966 404.541 239.969 405.543L254.772 420.329C255.775 421.332 257.136 421.894 258.555 421.894H279.489C280.907 421.894 282.268 421.331 283.272 420.329L298.074 405.543C299.078 404.541 299.641 403.182 299.641 401.765V380.854C299.641 379.437 299.077 378.078 298.074 377.075L283.272 362.29C282.268 361.288 280.907 360.725 279.489 360.725Z" fill="#FFCF6A"/>
<path d="M272.979 415.394L293.133 395.262C295.318 393.079 295.318 389.54 293.133 387.357L272.979 367.226C270.794 365.043 267.25 365.043 265.065 367.226L244.911 387.357C242.726 389.54 242.726 393.079 244.911 395.262L265.065 415.394C267.25 417.576 270.793 417.576 272.979 415.394Z" fill="black"/>
<path d="M552.608 324.087H506.597C503.479 324.087 500.488 325.324 498.283 327.527L465.749 360.025C463.543 362.228 462.305 365.215 462.305 368.33V414.289C462.305 417.404 463.543 420.391 465.749 422.594L498.283 455.092C500.488 457.295 503.479 458.532 506.597 458.532H552.608C555.727 458.532 558.717 457.295 560.922 455.092L593.457 422.594C595.662 420.391 596.901 417.404 596.901 414.289V368.33C596.901 365.215 595.662 362.228 593.457 360.025L560.922 327.527C558.717 325.324 555.727 324.087 552.608 324.087Z" fill="black"/>
<path d="M540.07 360.725H519.136C517.718 360.725 516.357 361.288 515.353 362.29L500.551 377.075C499.547 378.078 498.984 379.437 498.984 380.854V401.765C498.984 403.182 499.547 404.541 500.551 405.543L515.353 420.329C516.357 421.332 517.718 421.894 519.136 421.894H540.07C541.489 421.894 542.849 421.331 543.853 420.329L558.656 405.543C559.659 404.541 560.223 403.182 560.223 401.765V380.854C560.223 379.437 559.659 378.078 558.656 377.075L543.853 362.29C542.849 361.288 541.489 360.725 540.07 360.725Z" fill="#FFCF6A"/>
<path d="M533.56 415.394L553.714 395.262C555.899 393.079 555.899 389.54 553.714 387.357L533.56 367.226C531.375 365.043 527.831 365.043 525.646 367.226L505.492 387.357C503.307 389.54 503.307 393.079 505.492 395.262L525.646 415.394C527.831 417.576 531.374 417.576 533.56 415.394Z" fill="black"/>
<path d="M175.33 194.406H168.314C167.481 194.406 166.995 193.92 166.995 193.088V161.034C166.995 160.201 167.481 159.716 168.314 159.716H173.107C173.941 159.716 174.427 160.201 174.427 161.034V167.903H176.65V193.088C176.649 193.92 176.163 194.406 175.33 194.406ZM200.404 194.406H193.389C192.555 194.406 192.069 193.92 192.069 193.088V171.511C192.069 170.331 191.097 169.36 189.916 169.36H179.289C177.066 169.36 176.649 170.608 176.649 172.62L174.357 169.013L180.678 160.618C181.233 159.993 181.997 159.716 182.831 159.716H190.263C191.097 159.716 191.861 159.993 192.416 160.618L200.821 169.013C201.377 169.568 201.724 170.331 201.724 171.094V193.087C201.724 193.92 201.238 194.406 200.404 194.406ZM111.359 194.406H104.344C103.511 194.406 103.025 193.92 103.025 193.088V161.034C103.025 160.201 103.511 159.716 104.344 159.716H109.137C109.971 159.716 110.457 160.201 110.457 161.034V167.903H112.679V193.088C112.679 193.92 112.193 194.406 111.359 194.406ZM74.4773 179.489V147.643C74.4773 146.811 73.9913 146.325 73.1576 146.325H66.1426C65.3089 146.325 64.8229 146.811 64.8229 147.643V179.489H74.4773ZM153.798 171.511V182.611C153.798 183.791 152.825 184.762 151.644 184.762L140.6 184.693C139.35 184.762 138.378 183.791 138.447 182.542L138.378 171.511C138.378 170.331 139.35 169.36 140.531 169.36H151.644C152.825 169.36 153.798 170.331 153.798 171.511ZM152.061 159.716H140.184C139.281 159.716 138.587 160.063 138.031 160.549L129.626 168.943C129.071 169.568 128.723 170.262 128.723 171.094V183.028C128.723 183.791 129.071 184.554 129.557 185.109L137.961 193.504C138.587 194.059 139.35 194.406 140.115 194.406H152.062C152.826 194.406 153.59 194.059 154.215 193.504L162.62 185.109C163.106 184.554 163.453 183.791 163.453 182.958V171.094C163.453 170.262 163.106 169.568 162.55 168.943L154.146 160.548C153.59 160.063 152.895 159.716 152.061 159.716ZM127.334 161.866L125.459 168.597C125.32 169.152 124.973 169.36 124.486 169.36H115.318C113.095 169.36 112.679 170.608 112.679 172.62L110.386 169.013L116.707 160.618C117.263 159.993 118.027 159.716 118.86 159.716H125.598C126.501 159.716 127.89 159.994 127.334 161.866ZM87.674 184.762H76.6302C75.4492 184.762 74.4768 183.791 74.4768 182.611V171.511C74.4768 170.331 75.4492 169.36 76.6302 169.36H87.674C88.9244 169.36 89.8968 170.331 89.8968 171.511V182.611C89.8968 183.791 88.9244 184.762 87.674 184.762ZM99.5512 182.958V171.094C99.5512 170.331 99.2039 169.568 98.6481 169.013L90.2436 160.618C89.6878 159.994 88.9239 159.716 88.0902 159.716H82.7422C81.9783 159.716 81.2139 159.994 80.5888 160.618L72.2536 169.013C71.6285 169.568 64.8216 170.331 64.8216 171.094V182.958C64.8216 183.791 65.0995 184.554 65.7246 185.109L74.0597 193.504C74.6849 194.059 75.4488 194.406 76.2131 194.406H88.0902C88.9239 194.406 89.6878 194.059 90.2436 193.504L98.6481 185.109C99.2039 184.554 99.5512 183.791 99.5512 182.958ZM51.695 171.58V182.611C51.695 183.791 50.7226 184.762 49.4723 184.762H38.4284C37.2475 184.762 36.2751 183.791 36.2751 182.611V171.58C36.2751 170.331 37.2475 169.36 38.4284 169.36H49.4723C50.7226 169.36 51.695 170.331 51.695 171.58ZM49.8889 159.716H38.0118C37.2479 159.716 36.4836 160.063 35.8584 160.618L27.4539 169.013C26.8981 169.568 26.6202 170.331 26.6202 171.164V183.028C26.6202 183.791 26.8981 184.554 27.4539 185.179L35.8584 193.505C36.4836 194.129 37.2475 194.407 38.0118 194.407H49.8889C50.7226 194.407 51.4865 194.129 52.0423 193.505L60.4468 185.179C61.0026 184.554 61.3498 183.791 61.3498 183.028V171.164C61.3498 170.331 61.0026 169.568 60.4468 169.013L52.0423 160.618C51.4865 160.063 50.7226 159.716 49.8889 159.716Z" fill="black"/>
<path d="M515.229 177.535C515.229 170.908 520.601 165.535 527.229 165.535H607.93C614.557 165.535 619.93 170.908 619.93 177.535V256.995C619.93 263.622 614.557 268.995 607.93 268.995H527.229C520.601 268.995 515.229 263.622 515.229 256.995V177.535Z" fill="black"/>
</svg>
