<svg width="346" height="665" viewBox="0 0 346 665" fill="none" xmlns="http://www.w3.org/2000/svg">
<path d="M232.139 0H113.861C105.845 0 98.157 3.184 92.488 8.853L8.853 92.488C3.184 98.157 0 105.845 0 113.861V232.139C0 240.155 3.184 247.843 8.853 253.512L92.488 337.147C98.156 342.815 105.844 346 113.861 346H232.139C240.155 346 247.843 342.816 253.512 337.147L337.147 253.512C342.815 247.844 346 240.156 346 232.139V113.861C346 105.845 342.816 98.157 337.147 92.488L253.512 8.853C247.843 3.184 240.155 0 232.139 0Z" fill="black"/>
<path d="M197.389 321.611L321.611 197.389C335.081 183.919 335.081 162.081 321.611 148.611L197.389 24.389C183.919 10.919 162.081 10.919 148.611 24.389L24.389 148.611C10.919 162.081 10.919 183.919 24.389 197.389L148.611 321.611C162.081 335.081 183.919 335.081 197.389 321.611Z" fill="#FFCF6A"/>
<path d="M202 333H144V665H202V333Z" fill="black"/>
</svg>
