<svg width="346" height="766" viewBox="0 0 346 766" fill="none" xmlns="http://www.w3.org/2000/svg">
<path d="M232.139 100H113.861C105.845 100 98.157 103.184 92.488 108.853L8.853 192.488C3.184 198.157 0 205.845 0 213.861V332.139C0 340.155 3.184 347.843 8.853 353.512L92.488 437.147C98.156 442.815 105.844 446 113.861 446H232.139C240.155 446 247.843 442.816 253.512 437.147L337.147 353.512C342.815 347.844 346 340.156 346 332.139V213.861C346 205.845 342.816 198.157 337.147 192.488L253.512 108.853C247.843 103.184 240.155 100 232.139 100Z" fill="black"/>
<path d="M197.389 421.611L321.611 297.389C335.081 283.919 335.081 262.081 321.611 248.611L197.389 124.389C183.919 110.919 162.081 110.919 148.611 124.389L24.389 248.611C10.919 262.081 10.919 283.919 24.389 297.389L148.611 421.611C162.081 435.081 183.919 435.081 197.389 421.611Z" fill="#FFCF6A"/>
<path d="M202 433H144V765H202V433Z" fill="black"/>
<path d="M94.992 245.48H102.864V273.384C102.864 276.2 103.483 278.419 104.72 280.04C105.957 281.619 107.941 282.408 110.672 282.408C113.403 282.408 115.387 281.619 116.624 280.04C117.861 278.419 118.48 276.2 118.48 273.384V245.48H126.352V273.384C126.352 278.291 125.051 282.237 122.448 285.224C119.845 288.168 115.92 289.64 110.672 289.64C105.381 289.64 101.435 288.168 98.832 285.224C96.272 282.237 94.992 278.291 94.992 273.384V245.48ZM137.391 289V245.48H151.727C156.292 245.48 159.706 246.632 161.967 248.936C164.271 251.24 165.423 254.312 165.423 258.152V261.544C165.423 265.384 164.271 268.477 161.967 270.824C159.706 273.128 156.292 274.28 151.727 274.28H145.071V289H137.391ZM151.727 252.84H145.071V266.92H151.727C153.604 266.92 155.034 266.451 156.015 265.512C157.039 264.573 157.551 263.251 157.551 261.544V258.152C157.551 256.488 157.039 255.187 156.015 254.248C155.034 253.309 153.604 252.84 151.727 252.84ZM174.141 289V245.48H188.477C193.042 245.48 196.456 246.632 198.717 248.936C201.021 251.24 202.173 254.312 202.173 258.152V261.544C202.173 265.384 201.021 268.477 198.717 270.824C196.456 273.128 193.042 274.28 188.477 274.28H181.821V289H174.141ZM188.477 252.84H181.821V266.92H188.477C190.354 266.92 191.784 266.451 192.765 265.512C193.789 264.573 194.301 263.251 194.301 261.544V258.152C194.301 256.488 193.789 255.187 192.765 254.248C191.784 253.309 190.354 252.84 188.477 252.84ZM220.363 282.536C225.312 282.536 227.787 280.701 227.787 277.032C227.787 275.539 227.403 274.365 226.635 273.512C225.91 272.659 224.544 271.912 222.539 271.272L217.291 269.544C211.019 267.496 207.883 263.379 207.883 257.192C207.883 253.608 208.992 250.664 211.211 248.36C213.472 246.013 216.992 244.84 221.771 244.84C223.776 244.84 225.76 245.075 227.723 245.544C229.686 245.971 231.776 246.675 233.995 247.656L231.627 254.248C229.579 253.437 227.83 252.861 226.379 252.52C224.971 252.136 223.52 251.944 222.027 251.944C220.064 251.944 218.507 252.307 217.355 253.032C216.246 253.715 215.691 254.973 215.691 256.808C215.691 258.173 216.075 259.304 216.843 260.2C217.654 261.053 218.976 261.779 220.811 262.376L226.059 264.104C229.216 265.171 231.584 266.728 233.163 268.776C234.784 270.781 235.595 273.448 235.595 276.776C235.595 280.616 234.379 283.731 231.947 286.12C229.515 288.467 225.696 289.64 220.491 289.64C218.443 289.64 216.31 289.405 214.091 288.936C211.915 288.424 209.526 287.571 206.923 286.376L209.291 279.784C211.68 280.808 213.707 281.533 215.371 281.96C217.078 282.344 218.742 282.536 220.363 282.536ZM249.904 276.264H244.144L243.376 259.56V245.48H250.736V259.56L249.904 276.264ZM250.864 289H243.12V281.384H250.864V289Z" fill="#1A1A1A"/>
</svg>
